<svg width="1264" height="464" viewBox="0 0 1264 464" fill="none" xmlns="http://www.w3.org/2000/svg">
<path fill-rule="evenodd" clip-rule="evenodd" d="M895.115 218.06V293.83H859.165V225.345C859.165 208.103 850.242 197.417 836.218 197.417C818.117 197.417 805.624 209.317 805.624 231.174V293.829H769.674V170.46H805.624V185.79C805.624 187.71 808.118 188.429 809.16 186.814C817.716 173.541 831.005 167.304 847.182 167.304C878.033 167.304 895.115 187.946 895.115 218.06Z" fill="#232322"/>
<path fill-rule="evenodd" clip-rule="evenodd" d="M945.594 231.903C945.594 253.759 957.322 269.545 977.719 269.545C998.371 269.545 1010.1 253.759 1010.1 231.903C1010.1 210.532 998.371 194.746 977.719 194.746C957.322 194.746 945.594 210.532 945.594 231.903ZM1045.28 231.903C1045.28 270.516 1019.02 296.987 977.719 296.987C936.671 296.987 910.41 270.516 910.41 231.903C910.41 193.775 936.671 167.304 977.719 167.304C1019.02 167.305 1045.28 193.775 1045.28 231.903Z" fill="#232322"/>
<path fill-rule="evenodd" clip-rule="evenodd" d="M1162.56 232.875C1162.56 209.562 1148.79 194.99 1129.67 194.99C1110.04 194.99 1096.53 209.318 1096.53 231.66V233.118C1096.78 254.975 1110.3 269.302 1129.67 269.302C1148.79 269.302 1162.56 254.732 1162.56 232.875ZM1061.85 170.461H1097.8V183.607C1097.8 185.216 1099.85 185.893 1100.81 184.603C1108.74 173.991 1122.92 167.305 1138.09 167.305C1175.06 167.305 1198 194.262 1198 232.875C1198 270.275 1175.06 296.988 1138.09 296.988C1123.09 296.988 1109.02 291.164 1101.25 281.623C1100.09 280.209 1097.8 281.037 1097.8 282.862V342.401H1061.85V170.461Z" fill="#232322"/>
<path fill-rule="evenodd" clip-rule="evenodd" d="M1214.62 170.469H1250.57V293.839L1214.62 293.838V170.469Z" fill="#232322"/>
<mask id="mask0" style="mask-type:alpha" maskUnits="userSpaceOnUse" x="1212" y="123" width="41" height="33">
<path fill-rule="evenodd" clip-rule="evenodd" d="M1212.98 123H1252.18V155.748H1212.98V123Z" fill="white"/>
</mask>
<g mask="url(#mask0)">
<path fill-rule="evenodd" clip-rule="evenodd" d="M1252.18 139.374C1252.18 148.417 1243.41 155.748 1232.58 155.748C1221.76 155.748 1212.98 148.417 1212.98 139.374C1212.98 130.33 1221.76 122.999 1232.58 122.999C1243.41 122.999 1252.18 130.331 1252.18 139.374Z" fill="#232322"/>
</g>
<mask id="mask1" style="mask-type:alpha" maskUnits="userSpaceOnUse" x="476" y="123" width="143" height="175">
<path fill-rule="evenodd" clip-rule="evenodd" d="M476 123H618.166V297.689H476V123Z" fill="white"/>
</mask>
<g mask="url(#mask1)">
<path fill-rule="evenodd" clip-rule="evenodd" d="M618.166 271.871L535.331 213.427C532.962 211.755 532.951 208.246 535.309 206.561L616.322 148.65L597.378 123L519.211 179.173C516.425 181.175 512.543 179.184 512.543 175.753V130.711H476V293.665H512.543V244.176C512.543 240.756 516.404 238.763 519.192 240.743L599.389 297.689L618.166 271.871Z" fill="#232322"/>
</g>
<path fill-rule="evenodd" clip-rule="evenodd" d="M676.085 268.309C666.216 268.309 661.72 263.092 661.72 258.246C661.72 251.14 670.169 243.956 683.787 239.489L713.768 229.276C712.342 245.505 696.637 268.309 676.085 268.309ZM688.992 161.946C655.292 161.946 630.697 181.578 627.272 210.344H661.69C663.881 196.716 674.196 188.19 689.231 188.19C701.397 188.19 713.671 194.521 713.871 208.655L676.922 217.198C629.808 227.669 627.388 251.9 627.388 261.831C627.388 284.568 647.336 296.464 667.041 296.464C688.826 296.464 704.162 283.251 713.873 260.645V294.075H748.243V212.595C748.243 182.773 723.878 161.946 688.992 161.946Z" fill="#232322"/>
<circle cx="178" cy="210" r="175" fill="#D1FF8A"/>
<path fill-rule="evenodd" clip-rule="evenodd" d="M130.5 191C134.636 191 138 187.631 138 183.49V103H123V183.49C123 187.631 126.364 191 130.5 191Z" fill="#232322"/>
<path fill-rule="evenodd" clip-rule="evenodd" d="M225.5 231C221.364 231 218 234.369 218 238.51V319H233V238.51C233 234.369 229.636 231 225.5 231Z" fill="#232322"/>
<path fill-rule="evenodd" clip-rule="evenodd" d="M174.152 259.383L103 309.864L111.708 322L182.861 271.519C186.225 269.132 187.009 264.467 184.609 261.122C182.208 257.776 177.517 256.996 174.152 259.383Z" fill="#232322"/>
<path fill-rule="evenodd" clip-rule="evenodd" d="M130.504 246C132.849 246 135.161 244.907 136.619 242.858C139.01 239.5 138.217 234.828 134.851 232.441L63.6723 182L55 194.181L126.178 244.623C127.492 245.553 129.004 246 130.504 246Z" fill="#232322"/>
<path fill-rule="evenodd" clip-rule="evenodd" d="M178.502 163C180.007 163 181.526 162.552 182.842 161.618L254 111.146L245.3 99L174.142 149.472C170.777 151.859 169.99 156.525 172.389 159.874C173.85 161.913 176.159 163 178.502 163Z" fill="#232322"/>
<path fill-rule="evenodd" clip-rule="evenodd" d="M229.815 177.379C228.184 176.224 226.2 175.773 224.229 176.108C222.259 176.443 220.537 177.525 219.38 179.154C218.224 180.783 217.773 182.763 218.108 184.733C218.443 186.702 219.526 188.421 221.157 189.576L292.342 240L301 227.803L229.815 177.379Z" fill="#232322"/>
</svg>
