<?xml version="1.0" encoding="UTF-8" standalone="no"?>
<!-- Created with Inkscape (http://www.inkscape.org/) -->
<svg xmlns:svg="http://www.w3.org/2000/svg" xmlns="http://www.w3.org/2000/svg" xmlns:dc="http://purl.org/dc/elements/1.1/" xmlns:cc="http://web.resource.org/cc/" xmlns:rdf="http://www.w3.org/1999/02/22-rdf-syntax-ns#" version="1.0" width="261.1734" height="396.77011" id="svg2385" style="display:inline">
  <defs id="defs2387"/>
  <g transform="translate(-175.79856,-288.74992)" id="layer2" style="display:inline">
    <path d="M 338.78125,288.75 C 334.5394,288.76719 330.35931,291.25585 329.28125,294.5 C 322.49785,294.52906 314.63524,297.99584 309.78125,300.65625 C 306.19118,302.62392 303.63723,306.47016 300.53125,307.9375 C 280.05517,317.61093 284.32703,330.69159 278.21875,342.71875 C 276.95919,345.19881 277.33999,349.39598 275.71875,351.65625 C 272.32063,356.39377 256.75169,368.22264 253.9375,373.0625 C 253.47421,373.85927 255.19608,375.22851 256.09375,375.4375 C 261.52671,376.70237 268.0942,376.72881 272.84375,375.9375 C 273.60356,377.52201 270.01138,380.27834 269.53125,381.96875 C 268.38358,386.00942 271.75402,391.76794 270.71875,394.5 C 268.83209,394.66651 263.19222,394.49255 260.71875,394.46875 C 255.65485,394.42003 249.00374,390.81499 245.71875,393.4375 C 244.07367,394.75081 245.49297,398.80043 243.9375,400.21875 C 243.45592,400.65786 242.22676,400.08682 241.78125,400.5625 C 240.30913,402.13431 240.53914,406.27976 241.0625,407.71875 C 241.7227,409.53396 245.59873,409.91662 246.5,411.625 C 247.27611,413.09614 247.17166,414.40904 245.71875,415.21875 C 238.88496,419.02722 224.44456,443.97098 217.0625,457.28125 C 207.93249,473.74318 197.93982,496.58625 192.15625,514.5 C 185.43272,535.32515 167.0728,622.01704 180.71875,639.125 C 225.74949,695.58012 299.84088,694.01783 367.50893,668.7991 C 378.32524,664.76806 369.29935,600.38382 385.98524,578.03046 C 390.94225,571.38977 398.27756,559.85065 403.70479,550.75381 C 405.81457,550.91945 406.03678,550.39629 406.26856,549.55996 C 406.70443,547.98727 406.04034,548.31977 405.65625,546.78125 C 411.85652,538.75889 418.18818,521.41271 419.46875,509.5 C 419.88778,505.60181 417.35918,506.12101 417.5,504.15625 C 417.69573,501.42535 421.06239,499.18501 420.71875,496.46875 C 420.4525,494.3642 417.52417,493.57346 417.15625,491.28125 C 419.04478,489.17945 423.50517,484.11569 426.78125,480.9375 C 429.28504,481.32565 431.72474,477.07933 429.90625,474.5 C 425.96976,468.91652 419.41416,464.73419 412.59375,463.15625 C 412.58381,463.15395 412.57244,463.15854 412.5625,463.15625 C 411.69607,462.65886 411.0424,461.97166 410.625,460.65625 C 410.5163,460.31371 411.22189,459.97498 411.4375,459.6875 C 411.79687,459.20834 412.01531,458.27006 411.78125,457.71875 C 411.55481,457.18536 410.43833,457.17863 410.1875,456.65625 C 409.31446,454.83804 409.97601,451.0337 410.53125,448.625 C 414.44695,447.78047 418.21345,445.73302 421,443.0625 C 433.08861,432.29765 439.77751,414.57784 435.84375,398.5625 C 434.18167,391.89493 428.76765,385.98208 421.65625,385.84375 C 421.18216,385.83453 420.70739,385.86277 420.21875,385.90625 C 407.18884,387.35017 398.42713,399.49289 394,410.90625 C 389.98645,421.69851 388.67658,435.9365 396.8125,444.96875 C 399.47788,447.76445 402.88684,448.96269 406.40625,449.03125 C 405.37184,454.88811 400.71429,458.82216 395.90625,459.78125 C 394.19517,460.12257 394.64786,462.26292 394.90625,463.25 C 395.16465,464.23708 396.13642,464.43798 396.4375,465.21875 C 396.70811,465.92046 396.80156,466.81499 396.78125,467.78125 C 396.10303,468.35492 395.41469,468.91255 394.71875,469.5 C 390.59301,472.98261 386.24517,480.56146 382.90625,485.15625 C 379.62022,483.37417 380.89872,481.14456 374.5,479.46875 L 379.0625,466.65625 L 376.40625,465.59375 L 377.875,460.15625 L 380.25,460.15625 L 380.96875,458.84375 L 378.59375,457.5625 L 379.125,455.625 L 380.5,455.5 C 385.13081,439.29214 386.51378,426.34655 366.96875,418.3125 C 368.14921,416.73978 369.87753,415.36087 370.90625,413.78125 C 372.05279,412.02075 371.31672,408.07977 373.21875,407.1875 C 376.09831,408.4338 382.73221,412.21832 385.15625,405.78125 C 388.01923,398.17855 380.40723,384.17596 381.59375,376.125 C 382.17997,372.14727 385.20949,375.11858 386.25,372.71875 C 386.91163,371.19277 386.2056,368.1236 386.875,364.9375 C 391.92443,366.06751 404.1108,367.62014 409.96875,368.03125 C 411.3468,368.12796 412.65437,366.49124 411.9375,365.84375 C 404.44224,359.0738 395.06004,349.6133 390.34375,345.9375 C 389.87452,343.92846 391.16692,340.51112 390.09375,338.78125 C 386.02503,332.22278 383.64418,327.9555 381.5625,315.96875 C 380.82446,311.71899 361.51465,300.68578 349.65625,297 C 349.186,293.3223 344.1739,289.12168 339.65625,288.78125 C 339.3739,288.75997 339.06404,288.74885 338.78125,288.75 z M 419.65625,389.21875 C 428.71635,389.20825 432.32878,399.73966 432.15625,407.4375 C 431.79283,421.52802 425.70404,436.47474 413.25,443.75 C 407.36252,447.46995 399.19805,444.85568 396.75,438.34375 C 391.35565,425.03593 396.21445,409.46101 404.375,398.625 C 408.18461,394.00551 413.28499,389.42216 419.65625,389.21875 z M 419.5625,392.03125 C 419.20932,392.03871 418.86248,392.07598 418.5,392.125 C 408.84284,393.65393 402.6785,403.39329 399.71875,412.4375 C 398.77589,415.45536 398.08031,418.79462 397.875,422.15625 C 398.25922,418.7481 399.21782,415.37596 400.40625,412.375 C 404.69732,401.47148 418.84166,386.6944 429.1875,398.3125 C 427.18487,394.65408 423.71276,391.94396 419.5625,392.03125 z M 365.8125,420.59375 C 379.38864,426.42144 382.36077,435.64082 374.1875,453.96875 L 375.59375,454.71875 L 375.25,456.6875 L 372.8125,456.6875 L 372.75,458.46875 L 374.78125,459.4375 L 373.875,464.71875 L 371.0625,464.40625 C 370.16964,482.97768 364.7245,475.80433 364.84375,488.8125 C 364.92752,497.95089 369.29258,502.9546 372.28125,505.59375 C 371.79316,506.2234 371.28582,506.83453 370.71875,507.375 C 367.42271,510.51642 364.59688,513.53282 362.59375,515.21875 C 354.30119,502.71298 338.70997,481.92457 329.28125,470.21875 C 327.38861,467.86901 327.34914,463.0817 329.5625,461.03125 C 333.30059,459.98567 337.11739,463.8652 337.78125,461.28125 C 339.62762,454.09467 320.24994,446.50572 323.46875,439.78125 C 331.50889,438.40282 338.56397,440.56303 344.8125,440.5 C 351.06129,440.43697 357.4572,439.66924 358.75,437.71875 C 360.48178,435.10596 360.61737,431.7649 361.625,428.9375 C 362.13724,427.50016 364.07551,426.69876 364.5625,425.71875 C 365.33212,424.16997 365.32316,422.27119 365.8125,420.59375 z" id="path2397" style="opacity:1;fill:#000000;fill-opacity:1;fill-rule:evenodd;stroke:none;stroke-width:1px;stroke-linecap:butt;stroke-linejoin:miter;marker:none;marker-start:none;marker-mid:none;marker-end:none;stroke-miterlimit:4;stroke-dasharray:none;stroke-dashoffset:0;stroke-opacity:1;visibility:visible;display:inline;overflow:visible;enable-background:accumulate"/>
  </g>
  <metadata>
    <rdf:RDF>
      <cc:Work>
        <dc:format>image/svg+xml</dc:format>
        <dc:type rdf:resource="http://purl.org/dc/dcmitype/StillImage"/>
        <cc:license rdf:resource="http://creativecommons.org/licenses/publicdomain/"/>
        <dc:publisher>
          <cc:Agent rdf:about="http://openclipart.org/">
            <dc:title>Open Clip Art Library</dc:title>
          </cc:Agent>
        </dc:publisher>
        <dc:title>Consulting detective with pipe and magnifying glass [silhouette]</dc:title>
        <dc:date>2009-07-05T14:22:25</dc:date>
        <dc:description>detective silhouette i vectorized. i only needed the upper body and that was all the source image featured anyways, so i guess it's somewhat incomplete. still pretty useful though.\n\nhttp://imgur.com/YNep1</dc:description>
        <dc:source>http://openclipart.org/detail/26996/consulting-detective-with-pipe-and-magnifying-glass-[silhouette]-by-doofi</dc:source>
        <dc:creator>
          <cc:Agent>
            <dc:title>DooFi</dc:title>
          </cc:Agent>
        </dc:creator>
        <dc:subject>
          <rdf:Bag>
            <rdf:li>clip art</rdf:li>
            <rdf:li>clipart</rdf:li>
            <rdf:li>consulting</rdf:li>
            <rdf:li>detective</rdf:li>
            <rdf:li>gif</rdf:li>
            <rdf:li>glass</rdf:li>
            <rdf:li>holmes</rdf:li>
            <rdf:li>image</rdf:li>
            <rdf:li>investigator</rdf:li>
            <rdf:li>loupe</rdf:li>
            <rdf:li>magnifier</rdf:li>
            <rdf:li>magnifying</rdf:li>
            <rdf:li>media</rdf:li>
            <rdf:li>officer</rdf:li>
            <rdf:li>pipe</rdf:li>
            <rdf:li>png</rdf:li>
            <rdf:li>police</rdf:li>
            <rdf:li>private</rdf:li>
            <rdf:li>profiler</rdf:li>
            <rdf:li>public domain</rdf:li>
            <rdf:li>sherlock</rdf:li>
            <rdf:li>silhouette</rdf:li>
            <rdf:li>smoking</rdf:li>
            <rdf:li>svg</rdf:li>
          </rdf:Bag>
        </dc:subject>
      </cc:Work>
      <cc:License rdf:about="http://creativecommons.org/licenses/publicdomain/">
        <cc:permits rdf:resource="http://creativecommons.org/ns#Reproduction"/>
        <cc:permits rdf:resource="http://creativecommons.org/ns#Distribution"/>
        <cc:permits rdf:resource="http://creativecommons.org/ns#DerivativeWorks"/>
      </cc:License>
    </rdf:RDF>
  </metadata>
</svg>
